<?xml version="1.0" encoding="UTF-8" standalone="no"?>
<svg
   xmlns:dc="http://purl.org/dc/elements/1.1/"
   xmlns:cc="http://creativecommons.org/ns#"
   xmlns:rdf="http://www.w3.org/1999/02/22-rdf-syntax-ns#"
   xmlns:svg="http://www.w3.org/2000/svg"
   xmlns="http://www.w3.org/2000/svg"
   viewBox="0 0 468.11334 59.230534"
   height="59.230534"
   width="468.11334"
   xml:space="preserve"
   id="svg2"
   version="1.1"><metadata
     id="metadata8"><rdf:RDF><cc:Work
         rdf:about=""><dc:format>image/svg+xml</dc:format><dc:type
           rdf:resource="http://purl.org/dc/dcmitype/StillImage" /></cc:Work></rdf:RDF></metadata><defs
     id="defs6"><clipPath
       id="clipPath18"
       clipPathUnits="userSpaceOnUse"><path
         id="path16"
         d="M 0,44.423 H 351.085 V 0 H 0 Z" /></clipPath></defs><g
     transform="matrix(1.3333333,0,0,-1.3333333,0,59.230533)"
     id="g10"><g
       id="g12"><g
         clip-path="url(#clipPath18)"
         id="g14"><g
           transform="translate(44.2491,39.4263)"
           id="g20"><path
             id="path22"
             style="fill:#2e7de0;fill-opacity:1;fill-rule:nonzero;stroke:none"
             d="m 0,0 c 0,-2.537 -2.057,-4.593 -4.594,-4.593 -2.537,0 -4.594,2.056 -4.594,4.593 0,2.537 2.057,4.594 4.594,4.594 C -2.057,4.594 0,2.537 0,0" /></g><g
           transform="translate(29.7852,23.6963)"
           id="g24"><path
             id="path26"
             style="fill:#2e7de0;fill-opacity:1;fill-rule:nonzero;stroke:none"
             d="m 0,0 -21.395,-21.394 c -1.793,-1.794 -4.702,-1.794 -6.496,0 -1.794,1.794 -1.794,4.702 0,6.496 L -6.497,6.497 c 1.794,1.794 4.703,1.794 6.497,0 v 0 C 1.793,4.703 1.793,1.794 0,0" /></g><g
           transform="translate(45.1168,5.5503)"
           id="g28"><path
             id="path30"
             style="fill:#2e7de0;fill-opacity:1;fill-rule:nonzero;stroke:none"
             d="M 0,0 C 0,2.537 2.057,4.594 4.594,4.594 7.131,4.594 9.188,2.537 9.188,0 9.188,-2.537 7.131,-4.594 4.594,-4.594 2.057,-4.594 0,-2.537 0,0" /></g><g
           transform="translate(59.5811,21.2803)"
           id="g32"><path
             id="path34"
             style="fill:#2e7de0;fill-opacity:1;fill-rule:nonzero;stroke:none"
             d="m 0,0 21.394,21.395 c 1.794,1.793 4.703,1.793 6.497,0 1.794,-1.794 1.794,-4.703 0,-6.497 L 6.496,-6.497 C 4.702,-8.291 1.794,-8.291 0,-6.497 -1.794,-4.703 -1.794,-1.794 0,0" /></g><g
           transform="translate(64.0645,36.083)"
           id="g36"><path
             id="path38"
             style="fill:#2e7de0;fill-opacity:1;fill-rule:nonzero;stroke:none"
             d="m 0,0 -33.781,-33.781 c -1.794,-1.794 -4.702,-1.794 -6.496,0 -1.794,1.794 -1.794,4.702 0,6.496 L -6.497,6.496 C -4.703,8.29 -1.794,8.29 0,6.496 1.794,4.702 1.794,1.794 0,0" /></g><g
           transform="translate(122.7012,34.166)"
           id="g40"><path
             id="path42"
             style="fill:#2e7de0;fill-opacity:1;fill-rule:nonzero;stroke:none"
             d="m 0,0 c 2.329,-2.213 3.494,-5.493 3.494,-9.842 v -17.209 h -7.161 v 16.309 c 0,2.624 -0.63,4.602 -1.89,5.933 -1.26,1.331 -3.056,1.997 -5.385,1.997 -2.635,0 -4.717,-0.779 -6.244,-2.334 -1.528,-1.556 -2.292,-3.796 -2.292,-6.721 v -15.184 h -7.16 V 2.98 h 6.817 V -0.9 c 1.183,1.387 2.673,2.437 4.468,3.15 1.795,0.711 3.818,1.068 6.073,1.068 C -5.424,3.318 -2.331,2.212 0,0" /></g><g
           transform="translate(143.0655,29.8638)"
           id="g44"><path
             id="path46"
             style="fill:#2e7de0;fill-opacity:1;fill-rule:nonzero;stroke:none"
             d="m 0,0 c -1.585,-1.332 -2.549,-3.103 -2.893,-5.315 h 17.358 c -0.306,2.174 -1.242,3.937 -2.807,5.287 C 10.091,1.321 8.144,1.996 5.814,1.996 3.523,1.996 1.584,1.33 0,0 M 21.167,-9.983 H -2.835 c 0.419,-2.212 1.518,-3.965 3.293,-5.258 1.776,-1.294 3.982,-1.94 6.617,-1.94 3.36,0 6.129,1.087 8.306,3.262 l 3.839,-4.331 c -1.375,-1.612 -3.114,-2.831 -5.214,-3.655 -2.1,-0.825 -4.467,-1.238 -7.103,-1.238 -3.361,0 -6.321,0.656 -8.879,1.969 -2.559,1.312 -4.536,3.139 -5.93,5.483 -1.394,2.343 -2.091,4.996 -2.091,7.958 0,2.924 0.678,5.558 2.034,7.901 1.356,2.343 3.237,4.171 5.643,5.484 2.406,1.312 5.117,1.968 8.134,1.968 2.979,0 5.643,-0.646 7.992,-1.94 2.349,-1.293 4.182,-3.113 5.499,-5.455 1.318,-2.344 1.977,-5.053 1.977,-8.127 0,-0.488 -0.038,-1.181 -0.115,-2.081" /></g><g
           transform="translate(188.9224,37.4839)"
           id="g48"><path
             id="path50"
             style="fill:#2e7de0;fill-opacity:1;fill-rule:nonzero;stroke:none"
             d="m 0,0 v -6.692 c -0.611,0.112 -1.165,0.169 -1.661,0.169 -2.788,0 -4.965,-0.798 -6.53,-2.391 -1.567,-1.594 -2.349,-3.89 -2.349,-6.889 v -14.566 h -7.161 v 30.032 h 6.817 V -4.724 C -8.822,-1.575 -5.194,0 0,0" /></g><g
           transform="translate(214.9884,15.3257)"
           id="g52"><path
             id="path54"
             style="fill:#2e7de0;fill-opacity:1;fill-rule:nonzero;stroke:none"
             d="m 0,0 c 1.718,1.724 2.578,3.993 2.578,6.805 0,2.812 -0.86,5.08 -2.578,6.805 -1.718,1.724 -3.895,2.587 -6.531,2.587 -2.635,0 -4.803,-0.863 -6.502,-2.587 -1.699,-1.725 -2.549,-3.993 -2.549,-6.805 0,-2.812 0.85,-5.081 2.549,-6.805 1.699,-1.725 3.867,-2.587 6.502,-2.587 2.636,0 4.813,0.862 6.531,2.587 m -14.895,-6.636 c -2.482,1.312 -4.42,3.139 -5.814,5.483 -1.395,2.343 -2.091,4.996 -2.091,7.958 0,2.961 0.696,5.605 2.091,7.93 1.394,2.324 3.332,4.142 5.814,5.455 2.482,1.312 5.271,1.968 8.364,1.968 3.131,0 5.938,-0.656 8.422,-1.968 2.482,-1.313 4.42,-3.131 5.815,-5.455 C 9.099,12.41 9.796,9.766 9.796,6.805 9.796,3.843 9.099,1.19 7.706,-1.153 6.311,-3.497 4.373,-5.324 1.891,-6.636 -0.593,-7.949 -3.4,-8.604 -6.531,-8.604 c -3.093,0 -5.882,0.655 -8.364,1.968" /></g><g
           transform="translate(279.1197,33.7158)"
           id="g56"><path
             id="path58"
             style="fill:#ffffff;fill-opacity:1;fill-rule:nonzero;stroke:none"
             d="m 0,0 c 2.157,-2.137 3.237,-5.286 3.237,-9.448 v -17.153 h -4.068 v 16.759 c 0,3.074 -0.755,5.418 -2.263,7.03 -1.509,1.612 -3.636,2.418 -6.387,2.418 -3.131,0 -5.595,-0.947 -7.39,-2.839 -1.796,-1.894 -2.692,-4.509 -2.692,-7.846 v -15.522 h -4.068 v 16.759 c 0,3.074 -0.755,5.418 -2.263,7.03 -1.509,1.612 -3.658,2.418 -6.445,2.418 -3.094,0 -5.547,-0.947 -7.361,-2.839 -1.814,-1.894 -2.721,-4.509 -2.721,-7.846 v -15.522 h -4.067 V 2.981 h 3.895 v -5.399 c 1.07,1.799 2.559,3.186 4.469,4.162 1.909,0.974 4.104,1.462 6.588,1.462 2.52,0 4.706,-0.526 6.559,-1.575 1.852,-1.05 3.236,-2.606 4.153,-4.668 1.108,1.949 2.701,3.477 4.783,4.584 2.082,1.105 4.459,1.659 7.133,1.659 3.78,0 6.75,-1.069 8.908,-3.206" /></g><g
           transform="translate(308.4205,11.5298)"
           id="g60"><path
             id="path62"
             style="fill:#ffffff;fill-opacity:1;fill-rule:nonzero;stroke:none"
             d="m 0,0 c 1.643,1.031 2.865,2.521 3.667,4.471 v 4.837 h -9.452 c -5.155,0 -7.734,-1.764 -7.734,-5.287 0,-1.725 0.667,-3.084 2.005,-4.078 1.337,-0.993 3.208,-1.49 5.615,-1.49 2.291,0 4.257,0.515 5.899,1.547 m 4.584,22.496 c 2.1,-1.932 3.151,-4.79 3.151,-8.577 V -4.415 H 3.839 v 4.612 c -0.917,-1.538 -2.263,-2.738 -4.038,-3.6 -1.777,-0.863 -3.887,-1.293 -6.331,-1.293 -3.361,0 -6.034,0.787 -8.02,2.362 -1.986,1.575 -2.978,3.655 -2.978,6.242 0,2.512 0.924,4.536 2.778,6.074 1.852,1.537 4.802,2.306 8.851,2.306 h 9.566 v 1.8 c 0,2.549 -0.726,4.489 -2.177,5.821 -1.452,1.33 -3.571,1.996 -6.358,1.996 -1.91,0 -3.744,-0.309 -5.5,-0.928 -1.757,-0.619 -3.266,-1.472 -4.526,-2.559 l -1.833,2.981 c 1.528,1.274 3.361,2.258 5.499,2.953 2.139,0.693 4.392,1.04 6.761,1.04 3.933,0 6.95,-0.966 9.051,-2.896" /></g><g
           transform="translate(346.4019,7.1148)"
           id="g64"><path
             id="path66"
             style="fill:#ffffff;fill-opacity:1;fill-rule:nonzero;stroke:none"
             d="M 0,0 -9.566,12.373 -19.191,0 h -4.582 l 11.915,15.185 -11.343,14.397 h 4.583 l 9.052,-11.585 9.05,11.585 H 3.953 L -7.39,15.185 4.641,0 Z" /></g></g></g></g></svg>